<svg width="29" height="21" viewBox="0 0 29 21" fill="none" xmlns="http://www.w3.org/2000/svg">
<path d="M9.99609 10.8807L18.872 7.33398L27.748 10.8807L18.872 14.4273L9.99609 10.8807Z" stroke="#888888" stroke-width="1.102" stroke-linejoin="round"/>
<path d="M27.7482 10.9277V14.8219M14.031 12.7496V18.0029C14.031 18.0029 16.0619 20.0013 18.8722 20.0013C21.6829 20.0013 23.7138 18.0029 23.7138 18.0029V12.7496" stroke="#888888" stroke-width="1.102" stroke-linecap="round" stroke-linejoin="round"/>
<path d="M17.6248 19.9997H1.79142C1.3542 19.9997 0.999756 19.6452 0.999756 19.208V3.37467C0.999756 2.93745 1.3542 2.58301 1.79142 2.58301H17.6248C18.062 2.58301 18.4164 2.93745 18.4164 3.37467V7.33301" stroke="#888888" stroke-width="1.102" stroke-linecap="round" stroke-linejoin="round"/>
<path d="M14.4583 1V4.16667" stroke="#888888" stroke-width="1.102" stroke-linecap="round" stroke-linejoin="round"/>
<path d="M4.95825 1V4.16667" stroke="#888888" stroke-width="1.102" stroke-linecap="round" stroke-linejoin="round"/>
<path d="M0.999756 7.33301H18.4164" stroke="#888888" stroke-width="1.102" stroke-linecap="round" stroke-linejoin="round"/>
</svg>
