<svg width="24" height="24" viewBox="0 0 24 24" fill="none" xmlns="http://www.w3.org/2000/svg">
<path fill-rule="evenodd" clip-rule="evenodd" d="M0 0V18.6667H14.9247V17.3333H1.33333V1.33333H19.3333V2.74667H20.6667V0H0ZM20.6667 6.66667C20.6667 7.02029 20.5262 7.35943 20.2761 7.60948C20.0261 7.85952 19.687 8 19.3333 8C18.9797 8 18.6406 7.85952 18.3905 7.60948C18.1405 7.35943 18 7.02029 18 6.66667C18 6.31305 18.1405 5.97391 18.3905 5.72386C18.6406 5.47381 18.9797 5.33333 19.3333 5.33333C19.687 5.33333 20.0261 5.47381 20.2761 5.72386C20.5262 5.97391 20.6667 6.31305 20.6667 6.66667ZM22 6.66667C22 7.37391 21.719 8.05219 21.219 8.55228C20.7189 9.05238 20.0406 9.33333 19.3333 9.33333C18.6261 9.33333 17.9478 9.05238 17.4477 8.55228C16.9476 8.05219 16.6667 7.37391 16.6667 6.66667C16.6667 5.95942 16.9476 5.28115 17.4477 4.78105C17.9478 4.28095 18.6261 4 19.3333 4C20.0406 4 20.7189 4.28095 21.219 4.78105C21.719 5.28115 22 5.95942 22 6.66667Z" fill="#888888"/>
<path fill-rule="evenodd" clip-rule="evenodd" d="M16.062 10.5533C16.4338 10.1984 16.928 10.0003 17.442 10H20.1633C21.1393 10 22.048 10.332 22.748 10.9933C23.4213 11.6293 23.772 12.4447 23.9153 13.2173C24.1406 14.432 23.9073 15.7593 23.3333 16.936V22.3333C23.3333 22.7516 23.1761 23.1545 22.8928 23.4622C22.6095 23.7699 22.2209 23.9599 21.8041 23.9944C21.3873 24.0289 20.9727 23.9054 20.6427 23.6485C20.3127 23.3915 20.0914 23.0199 20.0226 22.6073L19.6666 20.4713L19.3106 22.6073C19.2419 23.0199 19.0205 23.3915 18.6905 23.6485C18.3605 23.9054 17.946 24.0289 17.5292 23.9944C17.1123 23.9599 16.7237 23.7699 16.4405 23.4622C16.1572 23.1545 16 22.7516 16 22.3333V16.062C15.6959 16.2376 15.351 16.33 15 16.33H11.5986C11.0682 16.33 10.5595 16.1193 10.1844 15.7442C9.80935 15.3691 9.59863 14.8604 9.59863 14.33C9.59863 13.7996 9.80935 13.2909 10.1844 12.9158C10.5595 12.5407 11.0682 12.33 11.5986 12.33H14.1986L16.062 10.5527V10.5533ZM17.3333 18.3167V22.3333C17.3335 22.4168 17.3651 22.4972 17.4217 22.5586C17.4784 22.6199 17.556 22.6578 17.6392 22.6646C17.7224 22.6715 17.8052 22.6469 17.8711 22.5957C17.9371 22.5444 17.9814 22.4703 17.9953 22.388L18.6906 18.2173C18.7165 18.0617 18.7968 17.9202 18.9171 17.8182C19.0375 17.7161 19.1902 17.6601 19.348 17.66H19.9853C20.1431 17.6601 20.2958 17.7161 20.4161 17.8182C20.5365 17.9202 20.6168 18.0617 20.6426 18.2173L21.338 22.388C21.3519 22.4703 21.3962 22.5444 21.4621 22.5957C21.5281 22.6469 21.6108 22.6715 21.6941 22.6646C21.7773 22.6578 21.8549 22.6199 21.9115 22.5586C21.9682 22.4972 21.9997 22.4168 22 22.3333V16.7773C21.9999 16.6706 22.0256 16.5654 22.0746 16.4707C22.5893 15.4773 22.7766 14.3887 22.6046 13.4607C22.5 12.8967 22.2553 12.362 21.8326 11.9627C21.4013 11.5553 20.8293 11.3333 20.1633 11.3333H17.4426C17.2713 11.3333 17.106 11.3993 16.982 11.5173L14.926 13.4787C14.8021 13.5971 14.6373 13.6632 14.466 13.6633H11.5986C11.4218 13.6633 11.2523 13.7336 11.1272 13.8586C11.0022 13.9836 10.932 14.1532 10.932 14.33C10.932 14.5068 11.0022 14.6764 11.1272 14.8014C11.2523 14.9264 11.4218 14.9967 11.5986 14.9967H15C15.1713 14.9965 15.3361 14.9304 15.46 14.812L16.2066 14.1C16.3011 14.0099 16.4199 13.9496 16.5483 13.9264C16.6768 13.9033 16.8092 13.9183 16.9292 13.9697C17.0491 14.0211 17.1514 14.1066 17.2232 14.2156C17.295 14.3245 17.3333 14.4522 17.3333 14.5827V18.3173V18.3167Z" fill="#888888"/>
</svg>
