<svg width="138" height="177" viewBox="0 0 138 177" fill="none" xmlns="http://www.w3.org/2000/svg">
<path d="M78.8959 202.944C110.011 197.589 146.637 210.994 168.833 215.106C189.151 218.867 233.971 220.282 252.088 207.993C270.213 195.704 277.61 172.918 264.509 157.36C258.804 150.591 250.029 145.749 244.195 139.051C225.524 117.607 243.252 87.9697 237.765 62.2433C231.439 32.5899 194.861 12.7381 158.185 4.69266C134.86 -0.425173 109.118 -2.04135 86.8168 5.683C64.5204 13.4078 47.2447 32.4471 51.4149 51.2816C55.1719 68.2529 74.5071 85.5383 63.0071 100.3C54.9701 110.625 36.8462 111.752 23.5486 117.808C2.71686 127.299 -4.65752 150.034 3.7819 167.662C12.2264 185.29 33.432 197.651 56.3496 202.988C63.221 204.591 70.9936 204.302 78.8959 202.944Z" fill="url(#paint0_linear_22_1127)"/>
<defs>
<linearGradient id="paint0_linear_22_1127" x1="244.974" y1="58.3079" x2="68.5073" y2="235.761" gradientUnits="userSpaceOnUse">
<stop stop-color="#FFE600"/>
<stop offset="1" stop-color="#EF2800"/>
</linearGradient>
</defs>
</svg>
