<svg width="19" height="19" viewBox="0 0 19 19" fill="none" xmlns="http://www.w3.org/2000/svg">
<path d="M9.67273 5.50862L14.5693 7.9569V17.75H4.77618V7.9569L9.67273 5.50862ZM9.67273 5.50862V0M0.491699 17.75H18.8538M2.32791 17.75V10.4052H4.77618M17.0176 17.75V10.4052H14.5693M8.4486 17.75V14.0776H10.8969V17.75M9.67273 0.612069H13.3451V3.06034H9.67273M9.67273 11.6293C9.34807 11.6293 9.03671 11.5003 8.80714 11.2708C8.57757 11.0412 8.4486 10.7298 8.4486 10.4052C8.4486 10.0805 8.57757 9.76915 8.80714 9.53958C9.03671 9.31001 9.34807 9.18103 9.67273 9.18103C9.9974 9.18103 10.3088 9.31001 10.5383 9.53958C10.7679 9.76915 10.8969 10.0805 10.8969 10.4052C10.8969 10.7298 10.7679 11.0412 10.5383 11.2708C10.3088 11.5003 9.9974 11.6293 9.67273 11.6293Z" stroke="white" stroke-opacity="0.8" stroke-width="0.765086"/>
</svg>
