<svg width="32" height="32" viewBox="0 0 32 32" fill="none" xmlns="http://www.w3.org/2000/svg">
<path d="M15.5002 26.6663H2.66675V22.6663C2.66675 19.1063 9.77341 17.333 13.3334 17.333C14.6667 17.333 16.8934 17.5067 18.6667 18M13.3334 15.9997C16.2801 15.9997 18.6667 13.613 18.6667 10.6663C18.6667 7.71967 16.2801 5.33301 13.3334 5.33301C10.3867 5.33301 8.00008 7.71967 8.00008 10.6663C8.00008 13.613 10.3867 15.9997 13.3334 15.9997Z" stroke="#888888"/>
<path d="M19.3031 20.9469C19.0593 20.3487 18.9351 19.7085 18.9375 19.0625C18.9375 18.0612 19.2344 17.0825 19.7907 16.2499C20.347 15.4174 21.1376 14.7685 22.0627 14.3854C22.9877 14.0022 24.0056 13.9019 24.9876 14.0973C25.9697 14.2926 26.8717 14.7748 27.5797 15.4828C28.2877 16.1908 28.7699 17.0928 28.9652 18.0749C29.1606 19.0569 29.0603 20.0748 28.6771 20.9998C28.294 21.9249 27.6451 22.7155 26.8126 23.2718C25.9801 23.8281 25.0013 24.125 24 24.125C23.354 24.1274 22.7138 24.0032 22.1156 23.7594L21.1875 24.6875H19.5V26.375H17.8125V28.0625H15V25.25L19.3031 20.9469Z" stroke="#888888" stroke-linecap="round" stroke-linejoin="round"/>
<path d="M25.4062 18.5C25.8722 18.5 26.25 18.1222 26.25 17.6562C26.25 17.1903 25.8722 16.8125 25.4062 16.8125C24.9403 16.8125 24.5625 17.1903 24.5625 17.6562C24.5625 18.1222 24.9403 18.5 25.4062 18.5Z" fill="#888888"/>
</svg>
