<svg width="33" height="30" viewBox="0 0 33 30" fill="none" xmlns="http://www.w3.org/2000/svg">
<path d="M17.565 2.19863C17.565 2.8788 17.0127 3.43086 16.3308 3.43086C15.6504 3.43086 15.0987 2.87917 15.0987 2.19863C15.0987 1.5181 15.6504 0.966406 16.3308 0.966406C17.0127 0.966406 17.565 1.51864 17.565 2.19863Z" stroke="#888888" stroke-width="0.8"/>
<path d="M12.1884 9.73001H13.5424L13.5423 9.73021H14.0757H18.9406H19.081H19.3809H19.4733H20.8124H21.3512L21.1953 9.2145L20.2191 5.98389C20.121 5.64351 19.8749 5.21399 19.4941 4.86256C19.1053 4.50386 18.5598 4.21221 17.8684 4.19516L17.8684 4.19505L17.8589 4.19504L15.2037 4.19277L15.2014 4.19278C14.495 4.19623 13.9369 4.48661 13.5395 4.84871C13.1509 5.20284 12.9004 5.6387 12.8011 5.98258L11.8061 9.21224L11.6466 9.73001H12.1884Z" stroke="#888888" stroke-width="0.8"/>
<path d="M16.2208 10.46V16.5482M16.2208 16.5482H7.08838V18.8313M16.2208 16.5482H25.3532V18.8313" stroke="#888888" stroke-width="0.8"/>
<path d="M8.43264 20.4633C8.43264 21.1434 7.8804 21.6955 7.19843 21.6955C6.51803 21.6955 5.96641 21.1438 5.96641 20.4633C5.96641 19.7827 6.51803 19.2311 7.19843 19.2311C7.88037 19.2311 8.43264 19.7833 8.43264 20.4633Z" stroke="#888888" stroke-width="0.8"/>
<path d="M3.05606 27.9956H4.41004L4.40998 27.9958H4.94336H9.8083H9.94872H10.2486H10.341H11.6801H12.2189L12.063 27.4801L11.0867 24.2495C10.9886 23.9091 10.7426 23.4796 10.3617 23.1282C9.97299 22.7695 9.42744 22.4778 8.73607 22.4608L8.73607 22.4607L8.72656 22.4607L6.07138 22.4584L6.06908 22.4584C5.36265 22.4619 4.80462 22.7522 4.40721 23.1143C4.01854 23.4685 3.76812 23.9043 3.66874 24.2482L2.67379 27.4779L2.51428 27.9956H3.05606Z" stroke="#888888" stroke-width="0.8"/>
<path d="M26.6973 20.4633C26.6973 21.1434 26.145 21.6955 25.4631 21.6955C24.7827 21.6955 24.2311 21.1438 24.2311 20.4633C24.2311 19.7827 24.7827 19.2311 25.4631 19.2311C26.145 19.2311 26.6973 19.7833 26.6973 20.4633Z" stroke="#888888" stroke-width="0.8"/>
<path d="M21.3207 27.9956H22.6747L22.6746 27.9958H23.208H28.0729H28.2134H28.5132H28.6056H29.9448H30.4835L30.3277 27.4801L29.3514 24.2495C29.2533 23.9091 29.0072 23.4796 28.6264 23.1282C28.2376 22.7695 27.6921 22.4778 27.0007 22.4608L27.0007 22.4607L26.9912 22.4607L24.336 22.4584L24.3337 22.4584C23.6273 22.4619 23.0693 22.7522 22.6719 23.1143C22.2832 23.4685 22.0328 23.9043 21.9334 24.2482L20.9384 27.4779L20.7789 27.9956H21.3207Z" stroke="#888888" stroke-width="0.8"/>
</svg>
