<svg width="17" height="16" viewBox="0 0 17 16" fill="none" xmlns="http://www.w3.org/2000/svg">
<path d="M13.5156 3.5H2.51562" stroke="#F10000" stroke-linecap="round" stroke-linejoin="round"/>
<path d="M6.51562 6.5V10.5" stroke="#F10000" stroke-linecap="round" stroke-linejoin="round"/>
<path d="M9.51562 6.5V10.5" stroke="#F10000" stroke-linecap="round" stroke-linejoin="round"/>
<path d="M12.5156 3.5V13C12.5156 13.1326 12.4629 13.2598 12.3692 13.3536C12.2754 13.4473 12.1482 13.5 12.0156 13.5H4.01562C3.88302 13.5 3.75584 13.4473 3.66207 13.3536C3.5683 13.2598 3.51562 13.1326 3.51562 13V3.5" stroke="#F10000" stroke-linecap="round" stroke-linejoin="round"/>
<path d="M10.5156 3.5V2.5C10.5156 2.23478 10.4103 1.98043 10.2227 1.79289C10.0352 1.60536 9.78084 1.5 9.51562 1.5H6.51562C6.25041 1.5 5.99605 1.60536 5.80852 1.79289C5.62098 1.98043 5.51562 2.23478 5.51562 2.5V3.5" stroke="#F10000" stroke-linecap="round" stroke-linejoin="round"/>
</svg>
